<svg width="360" height="255" viewBox="0 0 360 255" fill="none" xmlns="http://www.w3.org/2000/svg">
<path d="M51.975 174.917L182.475 245.012C183.239 245.427 184.107 245.646 184.99 245.646C185.874 245.646 186.741 245.427 187.506 245.012L308.106 178.673C308.882 178.247 309.522 177.634 309.959 176.897C310.397 176.159 310.616 175.325 310.594 174.481C310.572 173.637 310.31 172.814 309.834 172.098C309.358 171.382 308.687 170.798 307.89 170.409L176.4 106.05C175.675 105.688 174.867 105.499 174.046 105.499C173.226 105.499 172.418 105.688 171.693 106.05L52.092 166.662C51.3023 167.061 50.6404 167.651 50.1752 168.371C49.71 169.091 49.4583 169.915 49.4464 170.757C49.4344 171.6 49.6626 172.43 50.1073 173.161C50.5519 173.893 51.1968 174.499 51.975 174.917Z" fill="#A6CEFF"/>
<path d="M168.975 154.567L146.7 164.717C149.973 166.782 153.429 168.576 157.032 170.079L179.703 155.878" fill="url(#paint0_linear_430_2867)"/>
<path d="M202.356 203.811L169.623 220.449C169.623 220.449 181.251 231.901 192.744 236.443L232.776 213.369" fill="url(#paint1_linear_430_2867)"/>
<path d="M112.662 149.187L169.632 119.794C170.724 119.227 171.634 118.395 172.267 117.385C172.9 116.375 173.233 115.224 173.232 114.051V15.9346C173.231 14.7846 172.909 13.6551 172.297 12.6594C171.685 11.6637 170.805 10.8368 169.745 10.2617C168.685 9.68668 167.483 9.38371 166.26 9.38324C165.036 9.38277 163.834 9.68481 162.774 10.259L105.804 41.1742C104.745 41.75 103.865 42.5775 103.254 43.5737C102.643 44.5699 102.321 45.6998 102.321 46.8498V143.444C102.321 144.584 102.637 145.704 103.237 146.694C103.838 147.684 104.703 148.509 105.747 149.089C106.791 149.669 107.978 149.983 109.191 150C110.403 150.017 111.6 149.737 112.662 149.187Z" fill="#3A7FD5"/>
<path d="M133.83 55.0544C137.214 51.7895 140.859 50.064 144.279 50.064C144.923 50.063 145.566 50.1254 146.196 50.2501C148.833 50.863 151.138 52.3689 152.667 54.4792C154.176 52.5071 155.811 50.623 157.563 48.8375C155.023 46.0463 151.586 44.1076 147.771 43.3142C141.192 42.0032 134.271 44.4223 128.403 50.0809C126.647 51.7852 125.076 53.6496 123.714 55.6465C125.874 56.8729 127.98 58.184 130.086 59.495C131.175 57.9024 132.429 56.4149 133.83 55.0544Z" fill="#56403D"/>
<path d="M133.866 105.288C130.266 104.265 127.242 101.127 125.361 96.3649C123.129 90.7232 122.787 83.6774 124.398 76.5047C125.322 72.2766 126.957 68.2137 129.24 64.4685C127.134 63.1575 125.028 61.8464 122.859 60.6115C120.084 65.0959 118.105 69.9755 117 75.0583C115.092 83.5167 115.542 91.975 118.269 98.877C120.996 105.779 125.604 110.313 131.418 112.047C132.147 109.737 132.939 107.496 133.866 105.288Z" fill="#FFA197"/>
<path d="M162.549 60.5269C161.6 58.0667 160.269 55.7522 158.598 53.6588C156.818 55.4969 155.162 57.4376 153.639 59.4696C154.355 60.5957 154.958 61.7822 155.439 63.0137C157.671 68.6554 158.013 75.7012 156.402 82.8738C154.791 90.0465 151.434 96.3564 146.97 100.636C143.244 104.231 139.203 105.957 135.495 105.568C134.541 107.801 133.74 110.093 132.984 112.393H133.038C134.198 112.624 135.38 112.74 136.566 112.74C142.029 112.74 147.546 110.279 152.406 105.593C157.851 100.374 161.91 92.8208 163.8 84.3625C165.69 75.9042 165.276 67.4458 162.549 60.5269Z" fill="#F2F2F2"/>
<path d="M225.459 198.55C225.459 198.55 226.359 203.625 226.161 205.207C225.963 206.788 222.3 211.187 220.644 211.821C218.988 212.455 216.9 212.929 217.872 215.297C218.844 217.666 228.816 213.657 229.635 213.048C230.454 212.439 231.345 206.459 231.633 206.712C231.921 206.966 231.786 213.479 232.776 213.369C233.766 213.259 232.776 196.968 232.776 196.968" fill="#FF831D"/>
<path d="M205.488 192.054C205.488 192.054 205.488 197.23 205.083 198.728C204.678 200.225 200.286 204.073 198.54 204.462C196.794 204.851 194.643 205.012 195.228 207.524C195.813 210.036 206.316 207.524 207.216 207.017C208.116 206.509 209.988 200.749 210.24 201.054C210.492 201.358 209.277 207.778 210.24 207.82C211.203 207.863 212.94 191.614 212.94 191.614" fill="#FF831D"/>
<path d="M225.9 201.265L226.188 205.173C226.188 205.173 230.382 204.902 233.073 202.593V200.732" fill="#D17213"/>
<path d="M205.416 194.245L205.236 198.161C205.236 198.161 209.439 198.322 212.382 196.309L212.598 194.456" fill="#D17213"/>
<path d="M181.053 74.6692C181.053 74.6692 173.97 66.2109 172.26 66.2786C170.55 66.3462 171.18 67.9702 171.18 67.9702C171.18 67.9702 166.68 64.6884 164.106 66.9722C164.106 66.9722 161.775 65.9149 161.226 66.9722C161.084 67.3071 161.047 67.6735 161.121 68.0275C161.194 68.3815 161.374 68.7081 161.64 68.9683C161.64 68.9683 160.272 70.0087 160.74 70.7277C160.866 70.9314 161.046 71.1013 161.262 71.2213C161.477 71.3412 161.722 71.4071 161.973 71.4128C161.973 71.4128 161.154 71.8357 161.352 72.4785C161.55 73.1214 169.38 78.9238 180.423 79.186" fill="#F7931E"/>
<path d="M173.7 75.9042H173.574C173.327 75.5504 173.142 75.1621 173.025 74.7538C172.864 74.3196 172.764 73.8675 172.728 73.409C172.656 72.4924 172.829 71.5736 173.232 70.7361C173.254 70.7063 173.266 70.6709 173.266 70.6346C173.266 70.5983 173.254 70.5629 173.232 70.5331C172.354 69.5773 171.604 68.5234 171 67.3951C170.901 67.2005 170.586 67.3951 170.694 67.5642C171.162 68.4596 171.723 69.3095 172.368 70.1017C172.755 70.567 172.854 70.6685 172.665 71.2182C172.53 71.5998 172.44 71.994 172.395 72.394C172.32 73.2716 172.458 74.1539 172.8 74.9738C172.944 75.3459 173.205 76.2087 173.7 76.3017C173.723 76.3081 173.747 76.3101 173.771 76.3076C173.795 76.3051 173.818 76.2982 173.839 76.2871C173.86 76.2761 173.878 76.2612 173.893 76.2434C173.908 76.2255 173.919 76.2051 173.925 76.1833V76.1325C173.939 76.1023 173.944 76.0687 173.938 76.036C173.933 76.0032 173.917 75.9728 173.893 75.9485C173.869 75.9242 173.838 75.907 173.803 75.8991C173.769 75.8912 173.733 75.893 173.7 75.9042Z" fill="#42210B"/>
<path d="M170.901 69.5012L164.259 66.7522C164.052 66.6677 163.863 66.9552 164.079 67.0398L170.721 69.7888C170.928 69.8818 171.117 69.5858 170.901 69.5012Z" fill="#42210B"/>
<path d="M169.542 71.0575C166.832 70.7503 164.205 69.9761 161.793 68.7738C161.586 68.6723 161.406 68.9599 161.613 69.0614C164.081 70.2914 166.769 71.0829 169.542 71.3959C169.776 71.4213 169.767 71.0829 169.542 71.0575Z" fill="#42210B"/>
<path d="M168.957 72.9691C166.451 72.6477 163.994 72.0457 161.64 71.176C161.424 71.0998 161.334 71.4213 161.541 71.5058C163.895 72.3756 166.352 72.9776 168.858 73.299C169.083 73.3667 169.2 73.003 168.957 72.9691Z" fill="#42210B"/>
<path d="M206.46 105.965C206.46 105.965 196.695 158.745 196.893 192.088C196.893 192.088 209.493 197.873 217.089 194.186C217.089 194.186 219.987 115.1 223.47 109.543" fill="#5E331F"/>
<path d="M215.424 109.01C215.424 109.01 218.016 180.601 218.43 200.098C218.43 200.098 235.53 203.98 237.42 199.54C239.31 195.099 230.913 107.572 230.913 107.572" fill="#5E331F"/>
<path d="M237.033 200.098C241.974 190.261 240.921 174.122 239.445 166.104C237.969 158.085 238.932 150.033 239.157 136.94C239.382 123.846 232.632 109.822 232.632 109.822L227.7 110.583" fill="#5E331F"/>
<path d="M218.277 111.201C223.164 112.36 228.6 113.307 233.145 110.812C240.669 80.9961 235.152 71.7596 222.165 68.2325C217.035 66.8368 211.689 69.4082 209.16 73.3667C207.729 84.87 206.514 95.5106 206.46 107.005C206.46 107.581 210.798 109.027 211.392 109.247C213.157 109.873 214.961 110.401 216.792 110.829L218.277 111.201Z" fill="#3A7FD5"/>
<path d="M210.681 71.4805C210.681 71.4805 201.015 84.3625 181.296 71.675C181.296 71.675 174.519 79.4059 175.617 80.5901C176.715 81.7743 197.874 97.05 207.9 88.7693" fill="#3A7FD5"/>
<path d="M180.108 70.7361C179.622 70.5247 180.918 95.8743 180.918 95.8743L196.065 101.575L195.372 85.7074L194.472 76.2594C194.472 76.2594 180.594 70.9476 180.108 70.7361Z" fill="#A6CEFF"/>
<path d="M93.6 174.943L119.79 161.409C120.298 161.158 120.725 160.783 121.026 160.323C121.327 159.863 121.49 159.336 121.5 158.796V113.679C121.5 113.151 121.351 112.632 121.07 112.174C120.788 111.717 120.384 111.337 119.897 111.073C119.41 110.809 118.858 110.67 118.295 110.671C117.733 110.671 117.181 110.81 116.694 111.074L90.504 125.284C90.0173 125.548 89.6131 125.928 89.332 126.385C89.0508 126.842 88.9025 127.361 88.902 127.889V172.329C88.9111 172.844 89.0603 173.347 89.3354 173.792C89.6105 174.237 90.0023 174.608 90.4735 174.87C90.9446 175.133 91.4794 175.277 92.0267 175.29C92.574 175.302 93.1157 175.183 93.6 174.943Z" fill="#3A7FD5"/>
<path d="M218.466 127.212C218.466 127.113 218.424 127.017 218.349 126.946C218.274 126.876 218.172 126.836 218.065 126.836C217.959 126.836 217.857 126.876 217.782 126.946C217.707 127.017 217.665 127.113 217.665 127.212C216.987 151.775 217.173 176.338 218.223 200.901C218.223 201.384 219.042 201.384 219.024 200.901C217.974 176.355 217.788 151.792 218.466 127.212Z" fill="white"/>
<path d="M210.177 90.7063C209.583 90.5117 200.754 88.3718 200.754 88.3718L199.71 99.5875L211.32 103.487" fill="#3A7FD5"/>
<path d="M200.799 89.5052C200.799 89.5052 198 87.5598 197.532 87.3145C197.064 87.0692 198.621 81.9011 194.832 80.9961L195.561 84.5993C195.561 84.5993 188.298 83.8635 186.903 84.4386C185.508 85.0138 186.12 86.9 186.12 86.9C186.12 86.9 183.942 86.9592 184.32 88.3633C184.396 88.7479 184.596 89.1014 184.892 89.3765C185.188 89.6516 185.566 89.8352 185.976 89.9027C185.976 89.9027 184.32 91.0784 185.274 92.068L186.237 93.0492C186.313 93.7981 186.627 94.5082 187.137 95.0877C187.92 95.9335 196.749 94.1234 196.749 94.1234L200.475 96.8216L200.799 89.5052Z" fill="#F7931E"/>
<path d="M193.401 86.7477C190.923 86.893 188.437 86.8506 185.967 86.6208C185.715 86.6208 185.715 86.9761 185.967 86.993C188.437 87.2227 190.923 87.2652 193.401 87.1199C193.653 87.103 193.653 86.7308 193.401 86.7477Z" fill="#42210B"/>
<path d="M193.752 89.2345C191.067 89.7964 188.321 90.0604 185.571 90.0211C185.518 90.0211 185.468 90.0407 185.431 90.0756C185.394 90.1105 185.373 90.1579 185.373 90.2072C185.373 90.2566 185.394 90.3039 185.431 90.3388C185.468 90.3737 185.518 90.3933 185.571 90.3933C188.36 90.417 191.142 90.1331 193.86 89.5475C194.103 89.5475 194.004 89.1838 193.752 89.2345Z" fill="#42210B"/>
<path d="M193.347 91.8481C190.97 92.4243 188.542 92.798 186.093 92.9646C186.04 92.9646 185.99 92.9842 185.953 93.0191C185.916 93.054 185.895 93.1014 185.895 93.1507C185.895 93.2001 185.916 93.2474 185.953 93.2823C185.99 93.3172 186.04 93.3368 186.093 93.3368C188.55 93.3368 191.043 92.6432 193.455 92.2034C193.707 92.1611 193.599 91.8058 193.347 91.8481Z" fill="#42210B"/>
<path d="M216.423 68.8753C216.423 68.8753 215.676 75.2529 220.851 73.3667C223.031 72.5672 225.138 71.6026 227.151 70.4824V66.6" fill="#CC6C62"/>
<path d="M213.156 55.3927C213.156 55.3927 210.654 68.1225 216.342 70.1863C222.03 72.2502 227.259 62.5738 227.259 59.6557C227.259 53.5065 220.761 54.0394 213.156 55.3927Z" fill="#F7931E"/>
<path d="M245.646 87.9065C245.545 87.0961 245.188 86.3329 244.62 85.7158C243.45 84.4555 241.587 83.9057 240.57 82.4932C238.923 80.1925 241.578 78.1625 241.785 75.8873C242.154 71.6581 236.385 71.2013 233.883 69.1206C232.678 67.9609 231.872 66.4873 231.57 64.8914C230.13 60.0448 229.833 54.0901 224.802 51.1043C223.207 50.2615 221.412 49.8105 219.582 49.7933C217.476 49.6833 215.082 49.8694 213.282 51.0536C212.477 51.5793 211.806 52.2662 211.318 53.0647C210.829 53.8632 210.535 54.7536 210.456 55.6718C210.366 56.9913 210.807 59.0552 212.517 59.2835C213.642 59.4104 214.209 58.5984 214.92 57.9471C215.631 57.2958 216.198 56.2555 216.999 55.5619C217.52 55.0821 218.181 54.7584 218.898 54.6315C221.769 54.217 219.168 59.0467 219.123 60.0786C219.081 60.6354 219.254 61.1878 219.609 61.635C220.083 62.1226 220.711 62.4547 221.4 62.5823C222.768 62.9375 225.153 63.5973 224.316 65.4412C223.857 66.4562 222.777 67.2513 222.192 68.2325C220.941 70.3132 220.779 72.7154 222.417 74.6608C223.21 75.5345 224.117 76.3103 225.117 76.9699C225.658 77.3129 226.118 77.7563 226.469 78.2727C226.82 78.7891 227.055 79.3676 227.16 79.9726C227.16 80.0487 227.16 80.1164 227.16 80.1925C226.89 82.1633 226.008 84.6585 226.098 86.8492C226.051 87.642 226.262 88.4295 226.701 89.1076C227.133 89.8995 227.722 90.6059 228.438 91.1884C229.94 92.396 231.744 93.2239 233.681 93.5939C235.618 93.9639 237.624 93.8638 239.508 93.303C241.389 92.7785 243.558 92.1019 244.845 90.6132C245.164 90.2352 245.399 89.8009 245.537 89.3361C245.675 88.8712 245.712 88.3851 245.646 87.9065ZM241.083 75.9634C241.112 75.6821 241.112 75.3988 241.083 75.1175C241.052 74.9113 241.004 74.7076 240.939 74.5085C241.115 74.9718 241.167 75.4683 241.092 75.9549L241.083 75.9634Z" fill="#5E331F"/>
<path d="M213.057 64.5954C214.121 64.5954 214.983 63.6562 214.983 62.4977C214.983 61.3392 214.121 60.4 213.057 60.4C211.993 60.4 211.131 61.3392 211.131 62.4977C211.131 63.6562 211.993 64.5954 213.057 64.5954Z" stroke="#42210B" stroke-width="0.5075" stroke-miterlimit="10"/>
<path d="M218.637 64.9929C219.701 64.9929 220.563 64.0538 220.563 62.8952C220.563 61.7367 219.701 60.7976 218.637 60.7976C217.573 60.7976 216.711 61.7367 216.711 62.8952C216.711 64.0538 217.573 64.9929 218.637 64.9929Z" stroke="#42210B" stroke-width="0.5075" stroke-miterlimit="10"/>
<path d="M216.855 62.3708C216.855 62.1763 216.549 62.1086 216.387 62.0579C216.25 62.0179 216.108 61.9951 215.964 61.9902C216.006 61.8211 216.042 61.6491 216.072 61.4743C216.072 61.2713 215.784 61.1867 215.739 61.3897C215.694 61.5927 215.649 61.8126 215.595 62.024H215.541C215.307 62.0833 214.596 62.4723 214.911 62.7599C214.938 62.7872 214.973 62.8051 215.012 62.8106C215.051 62.816 215.091 62.8087 215.125 62.7898C215.158 62.7709 215.184 62.7417 215.198 62.7069C215.211 62.6722 215.212 62.6342 215.199 62.5992C215.271 62.4933 215.379 62.4129 215.505 62.3708C215.442 62.6161 215.37 62.8699 215.289 63.1152C215.082 63.7495 214.65 64.3839 214.506 65.0268C214.398 65.5004 214.758 65.6696 215.244 65.7795C215.288 65.7908 215.335 65.785 215.375 65.7636C215.415 65.7422 215.444 65.7069 215.456 65.6654C215.467 65.6239 215.461 65.5796 215.439 65.5423C215.416 65.5051 215.378 65.4778 215.334 65.4666C214.74 65.3313 214.884 65.0268 215.082 64.6208C215.28 64.2148 215.352 63.9779 215.478 63.6481C215.604 63.3182 215.766 62.8022 215.883 62.3201C215.985 62.3082 216.087 62.3082 216.189 62.3201C216.301 62.3385 216.409 62.3698 216.513 62.4131C216.511 62.4372 216.516 62.4612 216.527 62.483C216.538 62.5049 216.554 62.5238 216.575 62.5381C216.595 62.5524 216.619 62.5617 216.645 62.565C216.67 62.5682 216.696 62.5655 216.72 62.5569C216.763 62.5469 216.8 62.5224 216.825 62.4881C216.85 62.4537 216.861 62.412 216.855 62.3708Z" fill="#42210B"/>
<path d="M218.898 66.0756C218.633 66.3541 218.307 66.5744 217.941 66.7206C217.575 66.8668 217.18 66.9354 216.783 66.9214C216.738 66.9214 216.694 66.9384 216.662 66.9685C216.63 66.9986 216.612 67.0395 216.612 67.0821C216.612 67.1248 216.63 67.1656 216.662 67.1958C216.694 67.2259 216.738 67.2428 216.783 67.2428C217.224 67.2557 217.663 67.1792 218.07 67.0187C218.477 66.8582 218.842 66.6173 219.141 66.3124C219.285 66.1517 219.051 65.9233 218.898 66.0756Z" fill="#42210B"/>
<path d="M206.451 101.584C206.451 101.584 226.683 108.223 235.62 99.0461L234.171 106.523C229.507 108.133 224.466 108.524 219.585 107.654C214.703 106.784 210.164 104.686 206.451 101.584Z" fill="#3A7FD5"/>
<path d="M222.75 88.1772C220.05 90.2241 216.036 90.0973 212.724 90.055C209.023 89.9942 205.34 89.5661 201.735 88.7778C200.988 88.6171 200.664 89.6997 201.42 89.8604C205.609 90.7788 209.899 91.2218 214.2 91.1799C217.485 91.1376 220.905 90.9769 223.569 88.9723C224.199 88.524 223.344 87.7459 222.75 88.1772Z" fill="#5E331F"/>
<path d="M207.648 80.8692L207 89.6997C206.946 90.4187 208.152 90.4187 208.197 89.6997L208.809 80.8692C208.899 80.1334 207.702 80.1334 207.648 80.8692Z" fill="#5E331F"/>
<path d="M92.317 88.1157C93.4286 78.728 89.1356 70.5746 82.7283 69.9045C76.3211 69.2344 70.2258 76.3013 69.1142 85.689C68.0026 95.0766 72.2956 103.23 78.7029 103.9C85.1102 104.57 91.2054 97.5033 92.317 88.1157Z" fill="#3A7FD5"/>
<path d="M84.339 84.4725L81.9 86.79V76.75C81.8719 76.4216 81.7132 76.1151 81.4555 75.8917C81.1978 75.6683 80.8601 75.5442 80.5095 75.5442C80.1589 75.5442 79.8212 75.6683 79.5635 75.8917C79.3058 76.1151 79.1472 76.4216 79.119 76.75V90.0211C79.1401 90.2645 79.2322 90.4977 79.3852 90.695C79.5382 90.8924 79.746 91.0463 79.986 91.1398C80.226 91.2334 80.4888 91.2629 80.7455 91.2252C81.0022 91.1875 81.2428 91.0841 81.441 90.9262L86.292 86.3671C86.5593 86.1237 86.7128 85.7905 86.7187 85.4407C86.7247 85.091 86.5825 84.7533 86.3235 84.5021C86.0645 84.2508 85.7099 84.1065 85.3378 84.101C84.9656 84.0954 84.6063 84.2291 84.339 84.4725Z" fill="#56403D"/>
<path d="M95.22 143.52V154.321C95.22 157.459 100.404 157.468 100.404 154.321V143.52C100.404 140.382 95.22 140.374 95.22 143.52Z" fill="#56403D"/>
<path d="M102.267 132.44V149.864C102.267 153.002 107.451 153.01 107.451 149.864V132.44C107.46 129.302 102.267 129.293 102.267 132.44Z" fill="#FFA197"/>
<path d="M110.628 119.811V146.565C110.628 149.703 115.812 149.712 115.812 146.565V119.811C115.812 116.673 110.628 116.665 110.628 119.811Z" fill="#F2F2F2"/>
<path d="M104.175 157.341L97.758 160.487C96.858 160.936 97.65 162.23 98.568 161.782L104.985 158.618C105.894 158.187 105.084 156.893 104.175 157.341Z" fill="#F2F2F2"/>
<path d="M115.416 156.554C109.452 159.56 103.425 162.455 97.335 165.241C96.435 165.664 97.218 166.933 98.145 166.535C104.235 163.75 110.262 160.854 116.226 157.849C117.126 157.392 116.325 156.098 115.416 156.554Z" fill="#F2F2F2"/>
<path d="M147.919 78.8882C148.444 74.4591 146.762 70.6482 144.164 70.3764C141.565 70.1047 139.034 73.4749 138.509 77.9041C137.985 82.3333 139.666 86.1441 142.265 86.4159C144.863 86.6877 147.395 83.3174 147.919 78.8882Z" fill="#F2F2F2"/>
<path d="M162.972 114.17L127.494 130.883C127.21 131.017 126.994 131.251 126.894 131.534C126.793 131.817 126.816 132.126 126.959 132.393C127.101 132.66 127.35 132.863 127.651 132.957C127.952 133.052 128.281 133.03 128.565 132.896L164.043 116.149C164.272 115.991 164.434 115.762 164.5 115.502C164.566 115.243 164.531 114.969 164.403 114.732C164.274 114.494 164.059 114.306 163.797 114.204C163.535 114.101 163.243 114.089 162.972 114.17Z" fill="#F2F2F2"/>
<path d="M162.972 109.01L127.494 125.758C127.21 125.891 126.994 126.125 126.894 126.408C126.793 126.691 126.816 127 126.959 127.267C127.101 127.534 127.35 127.737 127.651 127.832C127.952 127.926 128.281 127.904 128.565 127.771L164.043 111.023C164.327 110.89 164.543 110.656 164.643 110.372C164.744 110.089 164.721 109.78 164.579 109.513C164.437 109.246 164.187 109.043 163.886 108.949C163.585 108.855 163.256 108.877 162.972 109.01Z" fill="#F2F2F2"/>
<path d="M182.871 119.152C182.54 119.097 182.199 119.123 181.881 119.228C181.026 120.666 180.162 122.095 179.343 123.55L177.795 127.077C177.417 127.923 177.021 128.811 176.67 129.691C176.04 131.763 175.608 133.92 175.149 136.001C175.421 136.305 175.79 136.519 176.202 136.61C177.102 135.527 178.317 134.918 179.523 134.148C181.203 132.922 182.537 131.327 183.411 129.505C183.774 128.813 184.075 128.094 184.311 127.356C184.446 126.595 184.554 125.825 184.644 125.047C183.915 123.121 183.323 121.151 182.871 119.152Z" fill="#1B896C"/>
<path d="M166.851 135.248C166.793 135.195 166.747 135.132 166.716 135.062C165.762 134.613 164.799 134.216 163.818 133.785C163.512 133.573 163.206 133.379 162.918 133.184C162.865 133.239 162.799 133.281 162.726 133.309C162.653 133.337 162.574 133.349 162.495 133.345C161.068 133.309 159.647 133.159 158.247 132.896C158.184 133.009 158.136 133.128 158.103 133.252C159.368 134.637 160.222 136.312 160.578 138.107C160.848 138.394 161.145 138.707 161.478 139.02C162.882 139.545 164.799 139.435 166.401 139.629C166.478 139.477 166.538 139.319 166.581 139.156H166.653C167.193 139.341 167.72 139.562 168.228 139.815C169.283 139.953 170.283 140.34 171.135 140.94C171.371 140.856 171.588 140.729 171.774 140.568C170.1 138.834 168.642 136.897 166.851 135.248Z" fill="#1B896C"/>
<path d="M166.662 146.887L168.678 155.742C168.744 156.037 168.881 156.313 169.077 156.55C169.274 156.787 169.525 156.98 169.812 157.113C170.991 157.654 173.412 158.221 178.011 157.434C178.424 157.363 178.806 157.18 179.109 156.906C179.411 156.632 179.621 156.28 179.712 155.895L181.782 146.895" fill="#3A7FD5"/>
<path d="M174.222 149.796C178.402 149.796 181.791 148.493 181.791 146.886C181.791 145.28 178.402 143.977 174.222 143.977C170.042 143.977 166.653 145.28 166.653 146.886C166.653 148.493 170.042 149.796 174.222 149.796Z" fill="#56403D"/>
<path d="M184.626 124.963C184.446 122.823 182.952 120.902 183.177 118.746C183.177 118.348 182.637 118.28 182.43 118.56C178.505 123.983 175.962 130.182 174.996 136.677C174.963 136.762 174.963 136.855 174.996 136.94C174.584 139.838 174.491 142.769 174.717 145.685C174.984 145.663 175.248 145.624 175.509 145.567C175.297 142.706 175.397 139.832 175.806 136.99C177.156 135.493 179.055 134.774 180.675 133.607C182.045 132.597 183.122 131.279 183.807 129.775C184.492 128.257 184.773 126.605 184.626 124.963ZM183.015 129.445C182.167 131.242 180.745 132.747 178.947 133.751C178.191 134.199 177.453 134.597 176.751 135.096C178.19 132.436 179.432 129.686 180.468 126.866C180.639 126.409 179.865 126.214 179.694 126.663C178.715 129.324 177.548 131.92 176.202 134.436C177.289 129.285 179.392 124.37 182.403 119.947C182.601 121.165 183.213 122.256 183.546 123.499C184.077 125.481 183.894 127.572 183.024 129.445H183.015Z" fill="#37B596"/>
<path d="M174.294 145.702C173.691 144.171 173.061 142.624 172.305 141.143C172.315 141.074 172.304 141.003 172.274 140.939C172.244 140.875 172.195 140.82 172.134 140.78C171.204 138.956 169.943 137.299 168.408 135.882C165.393 133.192 161.442 132.499 157.464 132.11C157.059 132.068 156.987 132.524 157.221 132.744C157.233 132.79 157.254 132.832 157.283 132.87C157.313 132.908 157.35 132.94 157.392 132.964C159.768 134.343 159.066 137.861 161.586 139.164C162.765 139.773 164.196 139.595 165.483 139.638C167.191 139.656 168.876 140.017 170.424 140.695C171.767 142.099 172.697 143.807 173.124 145.652C173.512 145.701 173.903 145.717 174.294 145.702ZM163.35 135.485C162.864 135.324 162.657 136.043 163.134 136.212C165.253 136.92 167.219 137.98 168.939 139.342C168.525 139.23 168.104 139.139 167.679 139.071C166.005 138.817 163.44 139.308 161.964 138.504C159.903 137.379 160.092 134.622 158.607 132.981C162.207 133.429 165.609 134.241 168.255 136.796C169.209 137.735 170.038 138.78 170.721 139.908C168.664 137.908 166.136 136.39 163.341 135.476L163.35 135.485Z" fill="#37B596"/>
<defs>
<linearGradient id="paint0_linear_430_2867" x1="182.601" y1="145.482" x2="156.602" y2="168.007" gradientUnits="userSpaceOnUse">
<stop stop-color="#D4A397"/>
<stop offset="1" stop-color="#FEE9D4"/>
</linearGradient>
<linearGradient id="paint1_linear_430_2867" x1="16605.2" y1="7573.48" x2="15042.4" y2="10035.3" gradientUnits="userSpaceOnUse">
<stop stop-color="#D4A397"/>
<stop offset="1" stop-color="#FEE9D4"/>
</linearGradient>
</defs>
</svg>
